<?xml version="1.0" encoding="utf-8"?>
<!-- Generator: Adobe Illustrator 25.2.0, SVG Export Plug-In . SVG Version: 6.00 Build 0)  -->
<svg version="1.1" id="Calque_1" xmlns="http://www.w3.org/2000/svg" xmlns:xlink="http://www.w3.org/1999/xlink" x="0px" y="0px"
	 viewBox="0 0 80.5 78.7" style="enable-background:new 0 0 80.5 78.7;" xml:space="preserve">
<style type="text/css">
	.st0{fill:#4599DE;}
</style>
<g>
	<path class="st0" d="M77,64.8L58.6,46.4l9.9-9.9c0.8-0.8,0.8-2,0-2.8c-0.3-0.3-0.7-0.5-1.1-0.6l-38.2-7.1c-0.6-0.1-1.3,0.1-1.8,0.6
		c-0.5,0.5-0.7,1.1-0.6,1.8L34,66.6c0.2,1.1,1.2,1.8,2.3,1.6c0.4-0.1,0.8-0.3,1.1-0.6l9.9-9.9l18.4,18.4c0.8,0.8,2,0.8,2.8,0
		c0,0,0,0,0,0l8.5-8.5C77.8,66.8,77.8,65.6,77,64.8C77,64.8,77,64.8,77,64.8z M67.1,71.9L48.7,53.5c-0.8-0.8-2-0.8-2.8,0
		c0,0,0,0,0,0l-8.6,8.6l-5.8-31.6L63,36.4L54.4,45c-0.8,0.8-0.8,2,0,2.8c0,0,0,0,0,0l18.4,18.4L67.1,71.9z"/>
	<path class="st0" d="M13.4,9.6c-0.8-0.8-2.1-0.8-2.8,0c-0.8,0.8-0.8,2,0,2.8l5.7,5.7c0.8,0.8,2.1,0.7,2.8,0c0.8-0.8,0.8-2,0-2.8
		L13.4,9.6z"/>
	<path class="st0" d="M14.9,28c0-1.1-0.9-2-2-2c0,0,0,0,0,0h-8c-1.1,0-2,0.9-2,2s0.9,2,2,2h8C14,30,14.9,29.1,14.9,28
		C14.9,28,14.9,28,14.9,28z"/>
	<path class="st0" d="M28.9,14c1.1,0,2-0.9,2-2c0,0,0,0,0,0V4c0-1.1-0.9-2-2-2s-2,0.9-2,2v8C26.9,13.1,27.8,14,28.9,14
		C28.9,14,28.9,14,28.9,14z"/>
	<path class="st0" d="M16.2,37.9l-5.7,5.7c-0.8,0.8-0.8,2,0,2.8c0.8,0.8,2,0.8,2.8,0c0,0,0,0,0,0l5.7-5.7c0.8-0.8,0.8-2,0-2.8
		S17,37.1,16.2,37.9C16.2,37.9,16.2,37.9,16.2,37.9z"/>
	<path class="st0" d="M40.2,18.7c0.5,0,1-0.2,1.4-0.6l5.7-5.7c0.8-0.8,0.8-2,0-2.8c-0.8-0.8-2-0.8-2.8,0c0,0,0,0,0,0l-5.7,5.7
		c-0.8,0.8-0.8,2,0,2.8C39.2,18.5,39.7,18.7,40.2,18.7z"/>
</g>
</svg>
