<?xml version="1.0" encoding="utf-8"?>
<!-- Generator: Adobe Illustrator 25.2.0, SVG Export Plug-In . SVG Version: 6.00 Build 0)  -->
<svg version="1.1" id="Calque_1" xmlns="http://www.w3.org/2000/svg" xmlns:xlink="http://www.w3.org/1999/xlink" x="0px" y="0px"
	 viewBox="0 0 341.42 549.29" style="enable-background:new 0 0 341.42 549.29;" xml:space="preserve">
<style type="text/css">
	.st0{fill:#4A9ADB;}
</style>
<g>
	<path class="st0" d="M14.05,209.65c0.32,0.79,0.69,1.55,1.12,2.29C15.17,211.18,14.85,210.42,14.05,209.65z"/>
	<path class="st0" d="M297.38,14.67c3.8-2.35,7.59-4.7,11.38-7.05"/>
	<path class="st0" d="M182.09,276.27c49.15,30.81,98.58,61.25,147.7,92.1H329c-0.58,53.76-0.91,107.53-0.62,161.29l-3.65-16.81
		l2.43,4.33c6.12,18.05-16.5,35.84-34.23,22.19l1.42,1.01C201.47,480.3,109.14,419.48,14.22,362.04l7.76,4.21
		c-18.59-5.41-18.36-32.25-0.04-37.85l-5.41,2.53c95.2-51.81,181.38-115.5,273.86-170.94l-0.76-0.29
		c0.06-31.45,0.11-62.9,0.16-94.35l0.15-1.09C215.8,110.84,141.03,156.6,66.46,202.63l0.02,0.36
		c26.09,17.16,52.41,34.03,78.86,50.73l-37.87,23.73c-30.35-19.48-60.59-39.08-90.69-58.86l3.19,1.65
		c-17.57-7.1-16.09-34.16,4.45-37.74l-12.16,6.34c91.63-60.41,186.75-116.3,280.35-174.17l3.78-1.98
		c15.08-14.27,41.28,4.35,34.45,21.39l1.5-8.85c0.15,53.38-0.28,106.76-0.91,160.13c-88.47,53.8-177.47,106.91-264.86,162.11
		c72.72,47.34,146.08,93.86,219.6,140.17c0.23-31.86,0.41-63.73,0.57-95.59l0.5,0.32c-48.2-30.54-96.4-61.07-144.41-91.84"/>
</g>
</svg>
