<?xml version="1.0" encoding="utf-8"?>
<!-- Generator: Adobe Illustrator 25.2.0, SVG Export Plug-In . SVG Version: 6.00 Build 0)  -->
<svg version="1.1" id="Calque_1" xmlns="http://www.w3.org/2000/svg" xmlns:xlink="http://www.w3.org/1999/xlink" x="0px" y="0px"
	 viewBox="0 0 70 70" style="enable-background:new 0 0 70 70;" xml:space="preserve">
<style type="text/css">
	.st0{fill:#4599DE;}
</style>
<path class="st0" d="M22.8,60.2h1.8l8.8,4.9c0.3,0.2,0.7,0.2,1,0L53.5,53c1-0.6,1.5-1.7,1.2-2.9c-0.3-1.1-1.4-1.9-2.5-1.9l0,0l-21,2
	l-2.7-1.8c-0.2-0.1-0.4-0.2-0.6-0.2h-5.1c0-0.6-0.4-1-1-1h-4c-0.6,0-1,0.4-1,1v12c0,0.6,0.4,1,1,1h4C22.4,61.2,22.8,60.8,22.8,60.2z
	 M22.8,50.2h4.8l6.6,4.4c0.7,0.5,0.9,1.4,0.4,2.1c0,0,0,0.1-0.1,0.1c-0.5,0.6-1.4,0.8-2,0.3l-4.1-2.7L27.3,56l4,2.7
	c1.6,1.1,3.8,0.7,4.9-0.9c1.1-1.6,0.7-3.8-0.9-4.9l-0.1-0.1l-1.5-1l18.6-1.7c0.2,0,0.5,0.2,0.5,0.4c0.1,0.2,0,0.5-0.3,0.6L33.9,62.9
	l-8.5-4.7c-0.2-0.1-0.4-0.1-0.5-0.1h-2v-8H22.8z M20.8,59.2h-2v-10h2V59.2z"/>
<path class="st0" d="M58.7,43.4l-1.8-0.9c-0.3,0.6-0.7,1.2-1,1.7l1.7,1.1C58,44.8,58.4,44.2,58.7,43.4z"/>
<path class="st0" d="M14.8,42.7c-0.3-0.6-0.6-1.2-0.9-1.8l-1.8,0.8c0.3,0.7,0.6,1.3,1,1.9L14.8,42.7z"/>
<path class="st0" d="M60.5,39.6L58.6,39c-0.2,0.6-0.5,1.2-0.7,1.8l1.8,0.8C60,40.8,60.2,40.2,60.5,39.6z"/>
<path class="st0" d="M13.2,39.1c-0.2-0.6-0.4-1.3-0.6-1.9l-1.9,0.5c0.2,0.7,0.4,1.4,0.6,2.1L13.2,39.1z"/>
<path class="st0" d="M61.5,35.3l-2-0.3c-0.1,0.6-0.2,1.3-0.4,1.9l1.9,0.5C61.2,36.8,61.4,36,61.5,35.3z"/>
<path class="st0" d="M12.2,35.2c-0.1-0.6-0.2-1.3-0.3-2l-2,0.2c0.1,0.7,0.2,1.4,0.3,2.1L12.2,35.2z"/>
<path class="st0" d="M59.8,33l2,0.2c0-0.7,0-1.4,0-2.1V31l-2,0.1C59.8,31.8,59.8,32.4,59.8,33z"/>
<path class="st0" d="M9.8,31.1v0.1h2v-0.1c0-0.7,0-1.3,0.1-2l-2-0.2C9.9,29.8,9.8,30.4,9.8,31.1z"/>
<path class="st0" d="M59.5,27.1c0.1,0.6,0.2,1.3,0.2,2l2-0.2c-0.1-0.7-0.2-1.4-0.3-2.1L59.5,27.1z"/>
<path class="st0" d="M10.2,26.9l2,0.3c0.1-0.6,0.2-1.3,0.4-1.9l-1.9-0.5C10.4,25.4,10.3,26.1,10.2,26.9z"/>
<path class="st0" d="M58.5,23.4c0.2,0.6,0.4,1.3,0.6,1.9l1.9-0.5c-0.2-0.7-0.4-1.4-0.6-2.1L58.5,23.4z"/>
<path class="st0" d="M13.8,21.5L12,20.8c-0.3,0.7-0.6,1.3-0.8,2l1.9,0.6C13.3,22.8,13.6,22.1,13.8,21.5z"/>
<path class="st0" d="M56.9,19.6c0.3,0.6,0.6,1.2,0.9,1.8l1.8-0.8c-0.3-0.7-0.6-1.3-0.9-1.9L56.9,19.6z"/>
<path class="st0" d="M14.1,17c-0.4,0.6-0.8,1.2-1.1,1.8l1.8,1c0.3-0.6,0.7-1.1,1-1.7L14.1,17z"/>
<path class="st0" d="M57.6,16.8c-0.4-0.6-0.8-1.2-1.3-1.7l-1.5,1.2c0.4,0.5,0.8,1.1,1.2,1.6L57.6,16.8z"/>
<path class="st0" d="M18.2,14.9l-1.5-1.4c-0.5,0.5-1,1.1-1.4,1.6l1.6,1.2C17.3,15.8,17.7,15.3,18.2,14.9z"/>
<path class="st0" d="M54.9,13.5c-0.5-0.5-1-1-1.5-1.5L52,13.5c0.5,0.4,1,0.9,1.4,1.4L54.9,13.5z"/>
<path class="st0" d="M21.1,12.2l-1.2-1.6c-0.6,0.4-1.1,0.9-1.6,1.4l1.4,1.5C20.1,13,20.6,12.6,21.1,12.2z"/>
<path class="st0" d="M50.5,12.1l1.3-1.5c-0.6-0.4-1.2-0.9-1.7-1.2L49,11.1C49.5,11.3,50,11.8,50.5,12.1z"/>
<path class="st0" d="M24.4,10l-1-1.8c-0.6,0.3-1.2,0.7-1.8,1.1l1.1,1.7C23.2,10.8,23.8,10.3,24.4,10z"/>
<path class="st0" d="M48.2,8.2c-0.6-0.3-1.3-0.7-1.9-0.9l-0.9,1.8c0.6,0.3,1.2,0.6,1.8,0.9L48.2,8.2z"/>
<path class="st0" d="M25.4,7.3l0.8,1.8c0.6-0.3,1.2-0.5,1.8-0.7l-0.6-1.9C26.7,6.7,26,7,25.4,7.3z"/>
<path class="st0" d="M44.2,6.5c-0.7-0.2-1.4-0.4-2.1-0.6l-0.5,1.9c0.6,0.2,1.3,0.3,1.9,0.6L44.2,6.5z"/>
<path class="st0" d="M31.5,5.5c-0.7,0.1-1.4,0.3-2.1,0.4l0.5,1.9c0.6-0.2,1.3-0.3,1.9-0.4L31.5,5.5z"/>
<path class="st0" d="M40.1,5.4c-0.7-0.1-1.4-0.2-2.1-0.3l-0.2,2c0.7,0.1,1.3,0.1,2,0.2L40.1,5.4z"/>
<path class="st0" d="M35.8,5.1c-0.7,0-1.4,0-2.1,0.1l0.2,2c0.6-0.1,1.2-0.1,1.9-0.1V5.1z"/>
<path class="st0" d="M19.1,40.2l5,4.7c0.4,0.4,1,0.4,1.4,0l5-4.7c1.6-1.5,1.7-4,0.3-5.6c-0.1-0.1-0.2-0.2-0.3-0.3
	c-1.6-1.4-4-1.6-5.7-0.3c-1.7-1.3-4.1-1.2-5.7,0.3c-1.6,1.5-1.7,4-0.3,5.6C18.9,40.1,19,40.1,19.1,40.2z M20.5,35.8
	c0.9-0.9,2.4-0.9,3.3,0l0.3,0.3c0.4,0.4,1,0.4,1.4,0l0.3-0.3l0,0c0.9-0.9,2.4-0.9,3.3,0c0.8,0.7,0.9,2,0.2,2.8
	c0,0.1-0.1,0.1-0.2,0.2l-4.3,4l-4.3-4.1c-0.8-0.7-0.9-2-0.2-2.8C20.4,35.8,20.4,35.8,20.5,35.8z"/>
<rect x="42.8" y="35.2" class="st0" width="2" height="2"/>
<rect x="46.8" y="35.2" class="st0" width="2" height="2"/>
<path class="st0" d="M44.5,38.9L43,40.2c1.1,1.6,3.4,2,5,0.8c0.3-0.2,0.6-0.5,0.8-0.8l-1.5-1.3c-0.5,0.8-1.4,1-2.2,0.6
	C44.8,39.3,44.6,39.2,44.5,38.9z"/>
<path class="st0" d="M38.8,38.2c0,3.9,3.1,7,7,7s7-3.1,7-7s-3.1-7-7-7C42,31.1,38.8,34.2,38.8,38.2z M45.8,33.2c2.8,0,5,2.2,5,5
	c0,2.8-2.2,5-5,5s-5-2.2-5-5C40.8,35.3,43.1,33.2,45.8,33.2z"/>
<path class="st0" d="M25.8,16.1v9c0,0.6,0.4,1,1,1h15c1.4,0,2.5-1.1,2.5-2.5c0-0.5-0.2-1.1-0.5-1.5c0.7-0.9,0.7-2.1,0-3
	c0.8-1.1,0.6-2.7-0.5-3.5c-0.4-0.3-1-0.5-1.5-0.5h-4v-1.5c0-1.4-1.1-2.5-2.5-2.5c-1.3,0-2.5,1.1-2.5,2.5v1.5h-6
	C26.3,15.1,25.8,15.5,25.8,16.1z M31.8,17.1h2c0.6,0,1-0.4,1-1v-2.5c0-0.3,0.3-0.5,0.5-0.5s0.5,0.2,0.5,0.5v2.5c0,0.6,0.4,1,1,1h5
	c0.3,0,0.5,0.2,0.5,0.5s-0.2,0.5-0.5,0.5c-0.6,0-1,0.4-1,1s0.4,1,1,1c0.3,0,0.5,0.2,0.5,0.5s-0.2,0.5-0.5,0.5c-0.6,0-1,0.4-1,1
	s0.4,1,1,1c0.3,0,0.5,0.2,0.5,0.5s-0.2,0.5-0.5,0.5h-10V17.1z M27.8,17.1h2v7h-2V17.1z"/>
</svg>
