<?xml version="1.0" encoding="utf-8"?>
<!-- Generator: Adobe Illustrator 25.2.0, SVG Export Plug-In . SVG Version: 6.00 Build 0)  -->
<svg version="1.1" xmlns="http://www.w3.org/2000/svg" xmlns:xlink="http://www.w3.org/1999/xlink" x="0px" y="0px"
	 viewBox="0 0 100 99.3" style="enable-background:new 0 0 100 99.3;" xml:space="preserve">
<style type="text/css">
	.st0{fill:#3A4750;}
</style>
<g id="Calque_2">
</g>
<g id="Calque_1">
	<g>
		<path class="st0" d="M5273.1,2400.1v-2c0-2.8-5-4-9.7-4s-9.7,1.3-9.7,4v2c0,1.8,0.7,3.6,2,4.9l5,4.9c0.3,0.3,0.4,0.6,0.4,1v6.4
			c0,0.4,0.2,0.7,0.6,0.8l2.9,0.9c0.5,0.1,1-0.2,1-0.8v-7.2c0-0.4,0.2-0.7,0.4-1l5.1-5C5272.4,2403.7,5273.1,2401.9,5273.1,2400.1z
			 M5263.4,2400c-4.8,0-7.4-1.3-7.5-1.8l0,0c0.1-0.5,2.7-1.8,7.5-1.8s7.3,1.3,7.5,1.8C5270.7,2398.7,5268.2,2400,5263.4,2400z"/>
		<path class="st0" d="M5268.4,2410.3c-0.6,0-1,0.4-1,1s0.4,1,1,1h4.3c0.6,0,1-0.4,1-1s-0.4-1-1-1H5268.4z"/>
		<path class="st0" d="M5272.7,2413.7h-4.3c-0.6,0-1,0.4-1,1s0.4,1,1,1h4.3c0.6,0,1-0.4,1-1
			C5273.7,2414.1,5273.3,2413.7,5272.7,2413.7z"/>
		<path class="st0" d="M5272.7,2417h-4.3c-0.6,0-1,0.4-1,1s0.4,1,1,1h4.3c0.6,0,1-0.4,1-1C5273.7,2417.5,5273.3,2417,5272.7,2417z"
			/>
	</g>
	<g>
		<path class="st0" d="M94.2,39.7h-7.3c-0.9-3-2.1-5.9-3.6-8.6l5.2-5.2c1.3-1.3,1.3-3.3,0-4.5l-9.9-9.9c-1.3-1.3-3.3-1.3-4.6,0
			l-5.2,5.2c-2.8-1.6-5.7-2.7-8.6-3.6V5.7c0-1.8-1.4-3.2-3.2-3.2H43c-1.8,0-3.2,1.4-3.2,3.2V13c-3,0.8-5.9,2-8.7,3.6l-5.2-5.2
			c-1.3-1.3-3.3-1.3-4.6,0l-9.9,9.9c-1.3,1.3-1.3,3.3,0,4.6l5.2,5.2c-1.6,2.8-2.8,5.7-3.6,8.7H5.7c-1.8,0-3.3,1.5-3.2,3.2v14
			c0,1.8,1.4,3.2,3.2,3.2H13c0.8,3,2,5.9,3.6,8.6L11.4,74c-1.2,1.2-1.2,3.3,0,4.6l9.9,9.9c1.2,1.2,3.3,1.2,4.6,0l5.2-5.2
			c2.7,1.5,5.7,2.7,8.6,3.6v7.3c0,1.8,1.4,3.2,3.2,3.2h14c1.8,0,3.3-1.5,3.2-3.2v-7.3c2-0.6,3.9-1.3,5.8-2.2L54,72.7
			c-7.1,1.3-14.8-0.9-20.3-6.4c-9-9-9-23.6,0-32.6s23.6-9,32.6,0c5.5,5.5,7.7,13.1,6.4,20.3l12.1,12.1c0.9-1.9,1.6-3.9,2.2-5.9h7.3
			c1.8,0,3.3-1.5,3.2-3.2V43C97.5,41.1,96,39.7,94.2,39.7z"/>
		<path class="st0" d="M62.6,54.3c1.6-4.7,0.5-10.1-3.3-13.9c-3.3-3.3-7.8-4.6-12-3.8c-1.1,0.2-1.5,1.6-0.7,2.4l4.7,4.7
			c2.1,2.1,2.1,5.4,0,7.5s-5.4,2.1-7.5,0l-4.7-4.7c-0.8-0.8-2.2-0.4-2.4,0.7c-0.7,4.2,0.5,8.8,3.8,12c3.8,3.8,9.2,4.8,13.9,3.3
			l21.4,21.4c2.3,2.3,6,2.3,8.2,0c2.3-2.3,2.3-6,0-8.2L62.6,54.3z"/>
	</g>
</g>
</svg>
