<?xml version="1.0" encoding="utf-8"?>
<!-- Generator: Adobe Illustrator 25.2.0, SVG Export Plug-In . SVG Version: 6.00 Build 0)  -->
<svg version="1.1" id="Calque_1" xmlns="http://www.w3.org/2000/svg" xmlns:xlink="http://www.w3.org/1999/xlink" x="0px" y="0px"
	 viewBox="0 0 280 222.5" style="enable-background:new 0 0 280 222.5;" xml:space="preserve">
<style type="text/css">
	.st0{fill:#3A4750;}
</style>
<g>
	<path class="st0" d="M146.3,10.5c12.1,7.3,22.2,16.3,30.3,26.6c5.1,6.5,9.5,13.5,13.1,20.8c11.7-2.1,22-5.1,29.7-8.9
		c-5.8-7.4-12.6-14-20.2-19.5C184.2,18.7,166,11.8,146.3,10.5L146.3,10.5z M49.4,101.6c-0.5-1.6,0.4-3.2,2-3.7
		c1.6-0.5,3.2,0.4,3.7,2l7.4,25.2c2.6-8.3,5.1-17.3,8.1-25.4c0.1-0.4,0.4-0.8,0.7-1.1l0.1-0.1c0.3-0.3,0.7-0.5,1.1-0.7
		c0.7-0.2,1.4-0.2,2,0c0.4,0.1,0.8,0.4,1.1,0.7l0.1,0.1c0.3,0.3,0.5,0.7,0.7,1.1c2.9,8.1,5.4,17.1,8.1,25.4l7.4-25.2
		c0.5-1.6,2.1-2.5,3.7-2c1.6,0.5,2.5,2.1,2,3.7l-10.2,34.5c-0.2,1-1,1.9-2,2.2c-1.6,0.5-3.3-0.4-3.8-2l-8.1-25.6l-8.1,25.6
		c-0.5,1.6-2.2,2.5-3.8,2c-1-0.3-1.8-1.2-2-2.2L49.4,101.6z M203.7,99.9L203.7,99.9c0.2-0.5,0.4-0.9,0.7-1.2l0.1-0.1
		c0.3-0.3,0.7-0.5,1.1-0.7c0.6-0.2,1.4-0.2,2,0c0.4,0.1,0.8,0.4,1.1,0.7l0.1,0.1c0.3,0.3,0.5,0.7,0.7,1.1c2.9,8.1,5.4,17.1,8.1,25.4
		l7.4-25.2c0.5-1.6,2.1-2.5,3.7-2c1.6,0.5,2.5,2.1,2,3.7l-10.2,34.5c-0.2,1-1,1.9-2,2.2c-1.6,0.5-3.3-0.4-3.8-2l-8.1-25.6l-8.1,25.6
		c-0.5,1.6-2.2,2.5-3.8,2c-1.1-0.3-1.8-1.2-2-2.2l-10.2-34.5c-0.5-1.6,0.4-3.2,2-3.7c1.6-0.5,3.2,0.4,3.7,2l7.4,25.2L203.7,99.9
		L203.7,99.9z M137.1,99.9L137.1,99.9c0.2-0.5,0.4-0.9,0.7-1.2l0.1-0.1c0.3-0.3,0.7-0.5,1.1-0.7c0.6-0.2,1.4-0.2,2,0
		c0.4,0.1,0.8,0.4,1.1,0.7l0.1,0.1c0.3,0.3,0.5,0.7,0.7,1.1c2.9,8.1,5.4,17.1,8.1,25.4l7.4-25.2c0.5-1.6,2.1-2.5,3.7-2
		c1.6,0.5,2.5,2.1,2,3.7l-10.2,34.5c-0.2,1-1,1.9-2,2.2c-1.6,0.5-3.3-0.4-3.8-2l-8.1-25.6l-8.1,25.6c-0.5,1.6-2.2,2.5-3.8,2
		c-1.1-0.3-1.8-1.2-2-2.2l-10.2-34.5c-0.5-1.6,0.4-3.2,2-3.7c1.6-0.5,3.2,0.4,3.7,2l7.4,25.2L137.1,99.9L137.1,99.9z M204.4,98.7
		L204.4,98.7L204.4,98.7z M208.7,98.6L208.7,98.6L208.7,98.6z M137.8,98.7L137.8,98.7L137.8,98.7z M142.1,98.6L142.1,98.6
		L142.1,98.6z M71.3,98.7L71.3,98.7L71.3,98.7z M75.5,98.6L75.5,98.6L75.5,98.6z M25.5,76.3h13.5c7.2-20.9,20.7-38.8,38.2-51.6
		C94.8,11.9,116.5,4.4,140,4.4s45.2,7.6,62.8,20.4c17.5,12.8,31,30.7,38.2,51.6h13.5c4.5,0,8.7,1.9,11.7,4.9c3,3,4.9,7.1,4.9,11.7
		v50.4c0,4.5-1.9,8.7-4.9,11.7s-7.1,4.9-11.7,4.9H235c-1.8,3.4-3.7,6.7-5.8,9.9c0,0.1-0.1,0.2-0.1,0.2c-0.1,0.2-0.3,0.5-0.5,0.6
		c-8.4,12.5-19.4,23.2-32.3,31.2C180,212,160.7,217.8,140,217.8c-20.7,0-40-5.9-56.3-16.1c-12.8-8-23.8-18.6-32.2-31.1
		c-0.2-0.2-0.4-0.4-0.5-0.7c0-0.1-0.1-0.2-0.1-0.3c-2.1-3.2-4-6.5-5.8-9.9H25.5c-4.5,0-8.7-1.9-11.7-4.9c-3-3-4.9-7.1-4.9-11.7V92.9
		c0-4.5,1.9-8.7,4.9-11.7S21,76.3,25.5,76.3L25.5,76.3z M45.4,76.3h37.8c1.3-4.3,2.8-8.6,4.6-12.8C75.7,61.2,65.1,58,57,54
		C52.3,60.9,48.3,68.4,45.4,76.3z M89.4,76.3H137V68c-14.9-0.1-29.8-1.3-43.2-3.4C92.1,68.4,90.7,72.4,89.4,76.3z M143,76.3h47.6
		c-1.2-4-2.7-7.9-4.4-11.7c-13.4,2.1-28.3,3.3-43.2,3.4V76.3z M196.8,76.3h37.8c-2.9-8-6.8-15.5-11.6-22.4c-8,4.1-18.7,7.3-30.8,9.6
		C194,67.7,195.5,72,196.8,76.3z M228.2,159.8h-15.1c4.5,1.4,8.6,3,12.2,4.8C226.4,163,227.3,161.4,228.2,159.8z M185,159.8h-42
		v46.8c9.3-5.6,17.4-12.4,24.3-20C174.6,178.5,180.5,169.4,185,159.8z M137,159.8H95c4.5,9.6,10.4,18.7,17.7,26.8
		c6.9,7.6,15,14.4,24.3,20V159.8z M67,159.8H51.8c0.9,1.6,1.8,3.2,2.8,4.8C58.3,162.8,62.4,161.2,67,159.8z M254.5,82.3H140H25.5
		c-2.9,0-5.5,1.2-7.4,3.1C16.2,87.4,15,90,15,92.9v50.4c0,2.9,1.2,5.5,3.1,7.4c1.9,1.9,4.5,3.1,7.4,3.1H140h114.5
		c2.9,0,5.5-1.2,7.4-3.1c1.9-1.9,3.1-4.5,3.1-7.4V92.9c0-2.9-1.2-5.5-3.1-7.4C260,83.5,257.4,82.3,254.5,82.3z M60.6,49.1
		c7.8,3.8,18.1,6.7,29.7,8.9c3.6-7.3,7.9-14.3,13-20.8c8.1-10.3,18.3-19.4,30.3-26.6c-19.7,1.2-37.9,8.1-53,19.1
		C73.1,35.1,66.4,41.7,60.6,49.1z M58,169.6c7.7,10.8,17.5,20,28.8,27c13.8,8.6,29.8,13.9,46.9,15c-9.8-5.9-18.3-13.1-25.5-21
		c-8.1-9-14.6-19.1-19.4-29.8c-6.1,1.1-11.8,2.3-17,3.8C66.7,166.1,62,167.8,58,169.6L58,169.6z M146.2,211.6c17.2-1,33.2-6.4,47-15
		c11.3-7,21.1-16.3,28.8-27.1c-4-1.9-8.6-3.5-13.8-5c-5.2-1.5-11-2.8-17.1-3.9c-4.8,10.8-11.3,20.8-19.4,29.8
		C164.5,198.6,156,205.7,146.2,211.6L146.2,211.6z M183.5,59c-3.2-6.4-7.1-12.4-11.6-18.1c-7.7-9.8-17.4-18.4-29-25.3V62
		C157,61.9,170.9,60.9,183.5,59L183.5,59z M137,62V15.5c-11.6,6.9-21.2,15.5-29,25.3c-4.5,5.7-8.3,11.7-11.6,18.1
		C109.1,60.9,123,61.9,137,62L137,62z"/>
</g>
</svg>
